<?xml version="1.0" standalone="no"?>
<!DOCTYPE svg PUBLIC "-//W3C//DTD SVG 20010904//EN"
 "http://www.w3.org/TR/2001/REC-SVG-20010904/DTD/svg10.dtd">
<svg version="1.0" xmlns="http://www.w3.org/2000/svg"
 width="683.000000pt" height="608.000000pt" viewBox="0 0 683.000000 608.000000"
 preserveAspectRatio="xMidYMid meet">

<g transform="translate(0.000000,608.000000) scale(0.100000,-0.100000)"
fill="#000000" stroke="none">
<path d="M1702 6073 c938 -2 2477 -2 3420 0 942 1 174 2 -1707 2 -1881 0
-2652 -1 -1713 -2z"/>
<path d="M155 5986 c-31 -32 -41 -71 -25 -102 l13 -24 13 23 c41 70 56 127 34
127 -6 0 -22 -11 -35 -24z m22 -4 c-9 -10 -23 -33 -31 -52 -9 -20 -15 -27 -16
-17 0 24 26 74 42 80 21 9 22 8 5 -11z"/>
<path d="M6090 5930 l0 -50 50 0 50 0 0 50 0 50 -50 0 -50 0 0 -50z m90 0 l0
-40 -40 0 -40 0 0 40 0 40 40 0 40 0 0 -40z"/>
<path d="M6569 5958 l24 -28 -24 -27 -24 -28 28 24 27 24 28 -24 27 -24 -24
28 -24 27 24 28 24 27 -27 -24 -28 -24 -27 24 -28 24 24 -27z"/>
<path d="M297 5949 c4 -13 8 -18 11 -10 2 7 -1 18 -6 23 -8 8 -9 4 -5 -13z"/>
<path d="M340 5944 c-6 -14 -10 -31 -10 -37 0 -7 -4 -6 -10 3 -5 8 -10 11 -10
5 0 -5 4 -16 9 -24 6 -9 13 0 24 33 16 48 14 65 -3 20z"/>
<path d="M373 5925 c0 -27 2 -38 4 -22 2 15 2 37 0 50 -2 12 -4 0 -4 -28z"/>
<path d="M401 5923 c1 -27 4 -38 6 -25 3 15 10 22 18 18 15 -5 30 27 20 44 -3
5 -15 10 -26 10 -16 0 -19 -7 -18 -47z m39 22 c0 -8 -7 -15 -15 -15 -8 0 -15
7 -15 15 0 8 7 15 15 15 8 0 15 -7 15 -15z"/>
<path d="M474 5930 c1 -41 3 -45 26 -45 23 0 25 4 26 45 l2 45 -7 -40 c-4 -26
-11 -40 -21 -40 -10 0 -17 14 -21 40 l-7 40 2 -45z"/>
<path d="M553 5954 c-4 -11 2 -23 18 -35 l24 -18 -25 -10 c-23 -9 -23 -10 -4
-10 30 -1 38 26 14 41 -25 16 -26 35 -2 41 16 4 16 5 -1 6 -10 0 -20 -6 -24
-15z"/>
<path d="M733 5963 c12 -3 17 -16 19 -46 l1 -42 4 40 c3 22 10 43 16 47 7 4
-4 7 -23 7 -19 -1 -27 -3 -17 -6z"/>
<path d="M943 5925 c0 -27 2 -38 4 -22 2 15 2 37 0 50 -2 12 -4 0 -4 -28z"/>
<path d="M900 5950 c0 -5 -9 -10 -20 -10 -16 0 -20 -6 -19 -32 2 -31 2 -31 6
-5 5 34 33 36 33 2 0 -17 5 -25 18 -24 10 0 12 3 5 6 -15 5 -17 40 -4 45 5 2
3 9 -5 16 -8 7 -14 8 -14 2z"/>
<path d="M639 5928 c11 -15 11 -21 0 -35 -11 -15 -11 -16 1 -6 11 10 17 10 29
0 14 -11 14 -10 2 6 -11 14 -11 20 0 35 12 15 12 16 -2 5 -12 -10 -18 -10 -29
0 -12 10 -12 9 -1 -5z"/>
<path d="M794 5910 c1 -18 7 -26 24 -28 19 -3 22 1 21 30 -2 30 -2 31 -6 6 -5
-34 -30 -37 -36 -5 -3 19 -4 19 -3 -3z"/>
<path d="M974 5925 c-10 -24 4 -45 28 -44 l23 2 -22 4 c-13 2 -23 8 -23 13 0
5 10 11 23 13 21 4 21 4 -3 6 -23 2 -24 3 -5 11 18 8 18 9 2 9 -10 1 -20 -6
-23 -14z"/>
<path d="M5663 5923 c15 -2 39 -2 55 0 15 2 2 4 -28 4 -30 0 -43 -2 -27 -4z"/>
<path d="M30 2890 l0 -2850 3385 0 3385 0 0 2850 0 2850 -3385 0 -3385 0 0
-2850z m3190 2505 c0 -8 -4 -15 -10 -15 -5 0 -10 7 -10 15 0 8 5 15 10 15 6 0
10 -7 10 -15z m800 0 c0 -8 -4 -15 -10 -15 -5 0 -10 7 -10 15 0 8 5 15 10 15
6 0 10 -7 10 -15z m-1240 -5 c0 -16 -74 -160 -82 -160 -5 0 10 36 32 80 l40
80 -39 0 c-22 0 -42 -5 -44 -12 -3 -8 -6 -6 -6 5 -1 14 8 17 49 17 28 0 50 -4
50 -10z m273 -7 c-17 -3 -23 -15 -32 -67 -6 -34 -11 -66 -11 -70 0 -4 15 -6
33 -4 24 2 33 8 35 26 2 12 8 22 14 22 5 0 7 -7 4 -16 -3 -9 -6 -22 -6 -30 0
-11 -15 -14 -67 -13 -38 1 -60 3 -51 6 18 4 22 14 33 73 4 19 9 43 11 52 3 10
-2 18 -13 21 -10 3 2 5 27 4 25 0 35 -2 23 -4z m764 0 c-14 -4 -16 -11 -10
-46 15 -98 16 -98 56 -27 26 46 33 67 24 72 -7 4 3 8 23 8 28 -1 32 -3 18 -11
-9 -5 -34 -41 -55 -79 -21 -39 -43 -70 -50 -70 -6 0 -17 31 -24 73 -7 39 -17
75 -23 79 -6 4 5 7 24 7 19 -1 27 -3 17 -6z m-610 -55 c-20 -87 -20 -86 10
-91 15 -2 -1 -4 -37 -4 -36 0 -50 2 -32 4 23 3 32 9 32 22 0 10 3 32 6 49 5
26 3 31 -17 35 -18 3 -16 5 10 6 30 1 33 -1 28 -21z m190 9 c5 -7 8 -33 8 -59
0 -44 -2 -48 -25 -48 -17 0 -21 3 -12 9 8 4 16 27 19 49 7 49 -15 66 -46 38
-22 -20 -33 -78 -17 -88 6 -4 -5 -7 -24 -7 -19 1 -28 3 -19 6 17 4 36 83 25
101 -8 13 83 12 91 -1z m167 -3 c32 -32 20 -44 -44 -44 -63 0 -77 -13 -44 -41
12 -10 25 -10 55 -2 33 9 37 8 28 -3 -14 -16 -62 -18 -90 -4 -25 14 -25 64 1
90 24 24 72 26 94 4z m443 -6 c-20 -87 -20 -86 10 -91 15 -2 -1 -4 -37 -4 -36
0 -50 2 -32 4 23 3 32 9 32 22 0 10 3 32 6 49 5 26 3 31 -17 35 -18 3 -16 5
10 6 30 1 33 -1 28 -21z m146 10 c4 -10 7 -10 18 0 16 15 46 16 55 1 4 -7 0
-9 -14 -5 -25 8 -69 -28 -78 -66 -5 -24 -3 -27 28 -31 18 -2 6 -4 -27 -4 -33
0 -50 2 -39 4 17 3 23 14 29 50 5 33 3 48 -7 54 -9 6 -7 9 9 9 12 0 23 -6 26
-12z m132 -25 c-12 -59 -11 -67 5 -70 25 -6 51 20 59 59 7 30 6 38 -8 41 -11
3 -9 5 7 6 24 1 26 -6 12 -64 -6 -27 -5 -42 2 -46 6 -4 -14 -6 -43 -5 l-54 1
3 49 c1 32 -2 53 -10 58 -9 5 -5 8 11 8 22 0 23 -3 16 -37z m245 17 c0 -11 -4
-20 -10 -20 -5 0 -10 7 -10 16 0 11 -8 14 -27 12 -39 -4 -35 -30 5 -40 64 -17
29 -71 -43 -66 -26 1 -35 7 -35 20 0 22 16 24 24 3 7 -19 50 -19 66 0 15 18 5
35 -20 35 -29 0 -50 11 -50 26 0 19 29 33 68 34 25 0 32 -4 32 -20z"/>
<path d="M3482 5328 c-21 -21 -13 -28 34 -28 38 0 45 3 42 18 -4 21 -57 29
-76 10z"/>
<path d="M1702 3 c938 -2 2477 -2 3420 0 942 1 174 2 -1707 2 -1881 0 -2652
-1 -1713 -2z"/>
</g>
</svg>
