<?xml version="1.0" standalone="no"?>
<!DOCTYPE svg PUBLIC "-//W3C//DTD SVG 20010904//EN"
 "http://www.w3.org/TR/2001/REC-SVG-20010904/DTD/svg10.dtd">
<svg version="1.0" xmlns="http://www.w3.org/2000/svg"
 width="684.000000pt" height="606.000000pt" viewBox="0 0 684.000000 606.000000"
 preserveAspectRatio="xMidYMid meet">

<g transform="translate(0.000000,606.000000) scale(0.100000,-0.100000)"
fill="#000000" stroke="none">
<path d="M5 3030 c0 -1669 1 -2352 2 -1518 2 835 2 2201 0 3035 -1 835 -2 152
-2 -1517z"/>
<path d="M165 5976 c-31 -32 -41 -71 -25 -102 l13 -24 13 23 c41 70 56 127 34
127 -6 0 -22 -11 -35 -24z m22 -4 c-9 -10 -23 -33 -31 -52 -9 -20 -15 -27 -16
-17 0 24 26 74 42 80 21 9 22 8 5 -11z"/>
<path d="M6100 5920 l0 -50 50 0 50 0 0 50 0 50 -50 0 -50 0 0 -50z m90 0 l0
-40 -40 0 -40 0 0 40 0 40 40 0 40 0 0 -40z"/>
<path d="M6579 5948 l24 -28 -24 -27 -24 -28 28 24 27 24 28 -24 27 -24 -24
28 -24 27 24 28 24 27 -27 -24 -28 -24 -27 24 -28 24 24 -27z"/>
<path d="M311 5913 c1 -27 4 -38 6 -25 3 15 10 22 18 18 15 -5 30 27 20 44 -3
5 -15 10 -26 10 -16 0 -19 -7 -18 -47z m39 22 c0 -8 -7 -15 -15 -15 -8 0 -15
7 -15 15 0 8 7 15 15 15 8 0 15 -7 15 -15z"/>
<path d="M471 5915 c0 -31 3 -45 8 -36 6 9 11 10 15 2 4 -6 11 -11 16 -11 6 0
2 9 -8 20 -9 11 -20 33 -23 48 -5 20 -7 15 -8 -23z"/>
<path d="M730 5946 c0 -7 -9 -16 -21 -19 -29 -8 -22 -51 9 -55 20 -3 22 1 22
42 0 25 -2 46 -5 46 -3 0 -5 -6 -5 -14z m0 -46 c0 -11 -7 -20 -15 -20 -8 0
-15 9 -15 20 0 11 7 20 15 20 8 0 15 -9 15 -20z"/>
<path d="M792 5913 c1 -41 2 -43 5 -13 l5 35 17 -34 18 -33 14 33 14 34 6 -35
c6 -33 6 -32 8 13 0 26 -1 47 -4 47 -2 0 -13 -17 -23 -37 l-19 -37 -14 37
c-18 51 -29 46 -27 -10z"/>
<path d="M1233 5953 c12 -3 17 -16 19 -46 l1 -42 4 40 c3 22 10 43 16 47 7 4
-4 7 -23 7 -19 -1 -27 -3 -17 -6z"/>
<path d="M1443 5915 c0 -27 2 -38 4 -22 2 15 2 37 0 50 -2 12 -4 0 -4 -28z"/>
<path d="M1010 5943 c0 -7 -9 -13 -20 -13 -16 0 -20 -6 -19 -32 2 -31 2 -31 6
-5 5 34 33 36 33 2 0 -17 5 -25 18 -24 10 0 12 3 5 6 -18 7 -16 43 1 43 8 0
17 -6 19 -12 4 -10 6 -10 6 0 1 7 -7 16 -16 19 -10 4 -21 11 -25 17 -5 7 -8 7
-8 -1z"/>
<path d="M1400 5940 c0 -5 -9 -10 -20 -10 -16 0 -20 -6 -19 -32 2 -31 2 -31 6
-5 5 34 33 36 33 2 0 -17 5 -25 18 -24 10 0 12 3 5 6 -15 5 -17 40 -4 45 5 2
3 9 -5 16 -8 7 -14 8 -14 2z"/>
<path d="M382 5900 c0 -19 2 -27 5 -17 2 9 2 25 0 35 -3 9 -5 1 -5 -18z"/>
<path d="M414 5915 c-9 -23 3 -45 23 -44 17 1 17 2 1 6 -10 2 -18 13 -18 23 0
10 8 21 18 23 16 4 16 5 -1 6 -10 0 -20 -6 -23 -14z"/>
<path d="M495 5920 c-3 -6 1 -7 9 -4 18 7 21 14 7 14 -6 0 -13 -4 -16 -10z"/>
<path d="M574 5921 c18 -7 18 -8 3 -14 -24 -9 -21 -37 3 -37 16 0 20 7 20 30
0 25 -4 30 -22 29 -21 0 -21 -1 -4 -8z m16 -31 c0 -5 -4 -10 -10 -10 -5 0 -10
5 -10 10 0 6 5 10 10 10 6 0 10 -4 10 -10z"/>
<path d="M621 5896 c1 -28 2 -29 8 -7 9 34 29 37 34 6 4 -24 4 -24 3 2 -1 22
-6 28 -23 29 -19 1 -23 -4 -22 -30z"/>
<path d="M904 5916 c-9 -24 4 -48 23 -44 12 2 18 12 18 28 0 29 -32 41 -41 16z
m36 -16 c0 -11 -7 -20 -15 -20 -8 0 -15 9 -15 20 0 11 7 20 15 20 8 0 15 -9
15 -20z"/>
<path d="M1085 5919 c-4 -6 -5 -12 -2 -15 2 -3 7 2 10 11 7 17 1 20 -8 4z"/>
<path d="M1139 5918 c11 -15 11 -21 0 -35 -11 -15 -11 -16 1 -6 11 10 17 10
29 0 14 -11 14 -10 2 6 -11 14 -11 20 0 35 12 15 12 16 -2 5 -12 -10 -18 -10
-29 0 -12 10 -12 9 -1 -5z"/>
<path d="M1294 5900 c1 -18 7 -26 24 -28 19 -3 22 1 21 30 -2 30 -2 31 -6 6
-5 -34 -30 -37 -36 -5 -3 19 -4 19 -3 -3z"/>
<path d="M1474 5915 c-10 -24 4 -45 28 -44 l23 2 -22 4 c-13 2 -23 8 -23 13 0
5 10 11 23 13 21 4 21 4 -3 6 -23 2 -24 3 -5 11 18 8 18 9 2 9 -10 1 -20 -6
-23 -14z"/>
<path d="M5673 5913 c15 -2 39 -2 55 0 15 2 2 4 -28 4 -30 0 -43 -2 -27 -4z"/>
<path d="M1060 5870 c0 -11 -5 -20 -12 -20 -6 0 -8 -3 -4 -7 4 -5 14 1 22 11
16 23 18 36 4 36 -5 0 -10 -9 -10 -20z"/>
<path d="M40 2880 l0 -2850 3385 0 3385 0 0 2850 0 2850 -3385 0 -3385 0 0
-2850z m1510 2505 c0 -8 -4 -15 -10 -15 -5 0 -10 7 -10 15 0 8 5 15 10 15 6 0
10 -7 10 -15z m1120 0 c0 -8 -4 -15 -10 -15 -5 0 -10 7 -10 15 0 8 5 15 10 15
6 0 10 -7 10 -15z m-640 2 c0 -8 -22 -124 -26 -139 -4 -12 3 -18 23 -21 15 -2
-1 -4 -37 -4 -36 0 -51 2 -34 4 29 4 31 7 42 67 15 82 15 84 -5 89 -11 3 -7 5
10 6 15 0 27 0 27 -2z m916 -47 l-7 -51 26 17 c13 9 22 20 19 25 -3 5 7 9 23
9 l28 0 -35 -21 c-19 -12 -37 -23 -38 -24 -8 -7 33 -64 47 -68 9 -3 1 -5 -17
-6 -20 -1 -31 3 -27 9 7 12 -19 53 -28 43 -4 -3 -7 -17 -7 -30 0 -17 -6 -23
-22 -23 -17 0 -19 3 -9 9 20 13 43 143 28 153 -8 5 -5 8 7 8 17 0 18 -5 12
-50z m717 -26 c-12 -64 -12 -78 -1 -85 9 -6 7 -9 -9 -9 -13 0 -23 5 -23 12 0
9 -3 9 -12 0 -19 -19 -55 -14 -72 9 -33 47 35 122 84 92 16 -10 19 -8 25 14 4
17 1 29 -7 34 -9 6 -7 9 8 9 21 0 21 -1 7 -76z m2047 73 c0 -8 -22 -124 -26
-138 -7 -25 61 -33 94 -11 24 16 26 16 20 0 -4 -9 -12 -36 -18 -60 l-12 -42
-29 34 c-16 19 -29 38 -29 43 0 4 -24 8 -52 9 -33 1 -41 3 -22 5 29 4 31 7 42
67 15 82 15 84 -5 89 -11 3 -7 5 10 6 15 0 27 0 27 -2z m-4280 -29 c0 -22 -9
-23 -25 -2 -18 26 -67 11 -63 -19 2 -15 11 -23 28 -25 51 -8 64 -38 30 -72
-25 -25 -115 -27 -105 -3 3 8 5 19 5 24 0 17 18 9 23 -11 6 -23 35 -26 61 -7
26 19 16 51 -18 57 -71 12 -48 83 26 78 29 -1 38 -6 38 -20z m1108 10 c18 -18
14 -45 -9 -61 -19 -14 -20 -17 -5 -45 9 -17 21 -32 28 -35 7 -3 4 -6 -7 -6
-13 0 -25 11 -35 32 -20 43 -57 49 -66 12 -4 -18 -2 -30 7 -36 10 -6 3 -9 -20
-9 -30 0 -32 2 -19 13 21 16 41 129 24 139 -6 4 12 8 40 8 27 0 55 -5 62 -12z
m1376 -40 l7 -52 30 52 c21 37 36 52 50 52 16 0 19 -3 12 -12 -14 -18 -36
-126 -28 -138 4 -6 -7 -10 -27 -9 -18 1 -25 3 -16 6 16 4 27 30 43 108 8 35
-3 24 -36 -37 -10 -21 -23 -38 -28 -38 -5 0 -13 21 -18 48 l-9 47 -13 -59
c-11 -49 -11 -60 1 -67 9 -6 2 -9 -20 -9 -29 0 -31 2 -20 14 8 7 20 40 27 71
11 48 11 59 0 66 -10 6 -6 9 12 9 24 0 27 -4 33 -52z m481 32 c-6 -17 -1 -20
32 -22 l38 -1 -36 -4 c-39 -4 -49 -19 -49 -77 0 -28 1 -29 43 -23 31 4 37 3
24 -4 -9 -6 -32 -9 -50 -7 -32 3 -32 3 -29 52 2 33 -1 52 -10 57 -10 7 -9 9 5
9 10 0 17 8 17 20 0 11 5 20 11 20 6 0 8 -9 4 -20z m563 3 c19 -38 -13 -73
-65 -73 -30 0 -33 -3 -33 -29 0 -23 5 -31 23 -34 12 -2 2 -5 -23 -5 -25 -1
-40 2 -33 6 15 10 37 106 30 133 -5 17 0 19 44 19 36 0 51 -4 57 -17z m397 -3
c-6 -17 -1 -20 32 -22 l38 -1 -36 -4 c-39 -4 -49 -19 -49 -77 0 -28 1 -29 43
-23 31 4 37 3 24 -4 -9 -6 -32 -9 -50 -7 -32 3 -32 3 -29 52 2 33 -1 52 -10
57 -10 7 -9 9 5 9 10 0 17 8 17 20 0 11 5 20 11 20 6 0 8 -9 4 -20z m-3818
-42 c-20 -87 -20 -86 10 -91 15 -2 -1 -4 -37 -4 -36 0 -50 2 -32 4 23 3 32 9
32 22 0 10 3 32 6 49 5 26 3 31 -17 35 -18 3 -16 5 10 6 30 1 33 -1 28 -21z
m209 11 c2 -4 0 -27 -5 -51 -7 -31 -7 -45 2 -50 8 -5 6 -8 -7 -8 -16 0 -18 5
-11 56 5 45 4 55 -7 52 -20 -7 -39 -50 -35 -80 2 -19 -1 -28 -10 -28 -10 0
-12 10 -7 43 4 23 7 47 8 52 0 6 -5 10 -13 10 -17 0 -35 -59 -28 -87 4 -14 -1
-18 -21 -18 -16 0 -22 3 -15 8 19 12 35 95 20 104 -7 4 19 7 56 6 37 -1 70 -5
73 -9z m151 -1 c23 -18 15 -65 -13 -87 -30 -23 -69 -27 -81 -8 -5 8 -9 2 -13
-18 -4 -21 -1 -32 10 -37 8 -4 -3 -6 -25 -6 -22 0 -32 2 -23 5 22 6 47 141 28
153 -6 4 14 8 46 8 33 0 65 -4 71 -10z m317 -4 c32 -32 20 -44 -44 -44 -43 0
-60 -4 -60 -13 0 -34 49 -48 93 -26 21 10 21 10 3 -5 -42 -34 -106 -13 -106
34 0 58 75 93 114 54z m443 -6 c-20 -87 -20 -86 10 -91 15 -2 -1 -4 -37 -4
-36 0 -50 2 -32 4 23 3 32 9 32 22 0 10 3 32 6 49 5 26 3 31 -17 35 -18 3 -16
5 10 6 30 1 33 -1 28 -21z m213 0 c0 -22 -16 -24 -24 -3 -8 21 -50 19 -70 -4
-10 -11 -16 -31 -14 -48 3 -24 7 -28 33 -27 17 0 39 4 50 8 20 8 20 7 1 -8
-40 -33 -106 -11 -106 35 0 11 11 31 25 45 31 31 105 33 105 2z m453 -33 c-1
-27 3 -52 8 -56 6 -3 -17 -7 -51 -7 -47 -1 -62 3 -67 15 -9 23 32 53 73 53 28
0 34 4 34 21 0 20 -4 21 -42 15 -31 -4 -39 -3 -28 4 8 6 29 9 45 8 29 -3 30
-4 28 -53z m164 42 c5 -7 8 -33 8 -59 0 -44 -2 -48 -25 -48 -17 0 -21 3 -12 9
8 4 16 27 19 49 7 49 -15 66 -46 38 -22 -20 -33 -78 -17 -88 6 -4 -5 -7 -24
-7 -19 1 -28 3 -19 6 17 4 36 83 25 101 -8 13 83 12 91 -1z m647 -6 c45 -49
-55 -136 -102 -89 -21 21 -14 65 14 87 33 26 66 27 88 2z m109 7 c4 -10 7 -10
18 0 16 15 46 16 55 1 4 -7 0 -9 -14 -5 -25 8 -69 -28 -78 -66 -5 -24 -3 -27
28 -31 18 -2 6 -4 -27 -4 -33 0 -50 2 -39 4 17 3 23 14 29 50 5 33 3 48 -7 54
-9 6 -7 9 9 9 12 0 23 -6 26 -12z m298 3 c-11 -7 -11 -15 1 -52 l14 -43 32 46
c22 32 28 48 19 51 -6 3 1 6 16 6 26 1 27 0 12 -15 -32 -32 -96 -135 -90 -144
4 -6 -11 -9 -37 -9 -27 1 -34 3 -18 6 14 3 32 14 41 25 15 19 15 26 1 67 -8
25 -19 52 -25 59 -7 9 -2 12 19 12 20 0 25 -3 15 -9z m553 -10 c45 -49 -55
-136 -102 -89 -21 21 -14 65 14 87 33 26 66 27 88 2z m109 7 c4 -10 7 -10 18
0 16 15 46 16 55 1 4 -7 0 -9 -14 -5 -25 8 -69 -28 -78 -66 -5 -24 -3 -27 28
-31 18 -2 6 -4 -27 -4 -33 0 -50 2 -39 4 17 3 23 14 29 50 5 33 3 48 -7 54 -9
6 -7 9 9 9 12 0 23 -6 26 -12z m360 -43 c-1 -27 3 -52 8 -56 6 -3 -17 -7 -51
-7 -47 -1 -62 3 -67 15 -9 23 32 53 73 53 28 0 34 4 34 21 0 20 -4 21 -42 15
-31 -4 -39 -3 -28 4 8 6 29 9 45 8 29 -3 30 -4 28 -53z m-1899 -290 c17 -13
80 -15 387 -15 235 0 370 -4 374 -10 4 -7 -114 -10 -347 -10 l-353 0 425 -243
c280 -161 429 -241 437 -235 7 6 13 3 17 -10 4 -10 58 -48 125 -86 65 -36 136
-82 157 -101 32 -29 16 -22 -86 36 -161 91 -163 93 -157 82 3 -4 142 -244 309
-533 265 -457 338 -590 324 -590 -5 0 -661 1133 -660 1140 0 3 -210 125 -468
273 l-468 267 -614 0 c-399 0 -617 4 -621 10 -4 7 196 10 594 10 530 0 600 2
595 15 -8 19 5 19 30 0z m-404 -73 c0 -11 -45 -32 -68 -32 -12 0 -7 6 13 19
32 21 55 26 55 13z m-123 -78 c-34 -19 -107 -45 -107 -39 0 9 96 54 115 54 16
0 15 -3 -8 -15z m-157 -88 c0 -2 -57 -37 -127 -78 l-127 -73 609 -5 c336 -4
612 -8 615 -10 11 -9 -362 -15 -788 -12 -332 2 -451 6 -446 14 4 6 3 9 -2 6
-5 -3 -211 -124 -459 -268 -247 -143 -457 -269 -466 -278 -12 -13 -363 -614
-575 -985 -12 -22 -24 -35 -27 -30 -3 5 121 230 277 499 226 391 280 491 269
499 -11 8 -8 14 16 28 20 12 53 58 101 141 39 68 84 138 101 157 17 20 -6 -27
-55 -114 -81 -141 -83 -147 -53 -130 637 369 787 459 783 470 -4 9 4 13 21 13
15 0 73 27 130 60 57 33 124 69 151 80 55 22 52 21 52 16z m-830 -64 c0 -15
-118 -208 -136 -223 -10 -8 -2 14 19 51 21 36 52 91 70 122 29 52 47 71 47 50z
m2000 -102 c19 -12 -47 -13 -105 -1 -38 8 -36 9 25 10 36 0 72 -4 80 -9z m95
0 c7 -12 -2 -12 -30 0 -19 8 -19 9 2 9 12 1 25 -3 28 -9z m-88 -320 c274 -160
516 -306 538 -325 35 -31 28 -28 -61 22 -388 223 -994 579 -994 586 0 4 4 7
10 7 5 0 234 -131 507 -290z m-882 210 c-27 -12 -43 -12 -25 0 8 5 22 9 30 9
10 0 8 -3 -5 -9z m-96 -64 c-3 -3 -231 -134 -379 -218 -19 -11 -180 -104 -358
-205 -178 -102 -325 -184 -327 -181 -2 2 -1 8 3 14 9 14 955 556 1007 577 38
15 63 21 54 13z m-840 -156 c-18 -22 -34 -40 -37 -40 -5 0 12 24 42 58 33 37
29 25 -5 -18z m2724 -68 c9 -8 17 -19 17 -24 0 -12 -28 5 -75 47 l-40 35 40
-22 c22 -12 48 -28 58 -36z m-1168 9 c23 -5 -190 -9 -508 -10 -363 -1 -546 2
-542 9 8 12 991 13 1050 1z m169 1 c2 -4 -11 -6 -30 -4 -19 2 -34 6 -34 8 0 8
59 4 64 -4z m1156 -104 c0 -22 -66 12 -93 48 -16 21 -12 20 38 -9 30 -17 55
-35 55 -39z m-3039 -125 c-435 -754 -534 -922 -542 -917 -5 3 -2 15 5 27 8 12
146 249 306 527 249 432 321 550 336 550 2 0 -46 -84 -105 -187z m1834 -63
c227 -133 423 -253 436 -267 l24 -27 -35 20 c-161 92 -857 499 -864 506 -6 5
-2 8 8 8 11 0 204 -108 431 -240z m627 -288 c260 -451 303 -530 295 -538 -2
-2 -525 893 -585 1002 -10 19 -10 23 1 18 7 -2 137 -220 289 -482z m-1303 444
c-13 -12 -903 -516 -905 -513 -2 2 2 10 9 19 15 19 797 465 847 484 35 13 57
17 49 10z m-728 -89 c-10 -9 -11 -8 -5 6 3 10 9 15 12 12 3 -3 0 -11 -7 -18z
m-43 -99 c-8 -13 -126 -217 -263 -455 -137 -238 -252 -430 -257 -427 -5 3 0
20 11 37 10 18 121 210 246 427 202 351 257 440 273 440 2 0 -2 -10 -10 -22z
m2268 -9 c4 -8 1 -8 -14 0 -12 6 -24 16 -28 22 -4 8 -1 8 14 0 12 -6 24 -16
28 -22z m-1168 -56 c-126 -2 -330 -2 -455 0 -126 1 -23 2 227 2 250 0 353 -1
228 -2z m1812 -49 c0 -21 -4 -33 -10 -29 -5 3 -10 19 -10 36 0 16 5 29 10 29
6 0 10 -16 10 -36z m-1140 -394 c227 -392 249 -431 233 -415 -15 15 -473 811
-473 821 0 5 6 0 12 -11 6 -11 109 -189 228 -395z m-497 184 c172 -97 317
-181 322 -187 16 -15 -32 11 -350 192 -165 94 -296 171 -292 171 5 0 149 -79
320 -176z m1637 -374 c0 -472 1 -519 16 -513 15 5 15 3 0 -25 -13 -25 -16 -64
-16 -194 0 -242 -14 -283 -20 -60 l-5 183 -231 -398 c-127 -219 -227 -400
-222 -402 5 -2 1 -9 -10 -17 -10 -7 -53 -73 -96 -146 -42 -73 -90 -149 -107
-168 l-31 -35 20 35 c11 19 52 89 90 155 39 66 69 121 68 123 -2 1 -225 -127
-497 -284 -272 -158 -521 -298 -554 -311 -32 -13 -55 -19 -50 -15 18 16 1104
642 1114 642 5 0 122 195 260 433 l251 434 0 547 c0 362 3 545 10 541 6 -4 10
-190 10 -525z m-3860 483 c0 -16 -5 -35 -10 -43 -7 -11 -10 -4 -10 28 0 23 5
42 10 42 6 0 10 -12 10 -27z m1745 -12 c-18 -15 -576 -343 -580 -339 -3 3 575
348 585 348 2 0 0 -4 -5 -9z m-522 -69 c-133 -236 -379 -659 -382 -657 -4 4
410 725 416 725 3 0 -13 -31 -34 -68z m-1232 -132 l-9 -45 -1 65 c0 36 3 76 7
90 11 40 14 -55 3 -110z m3489 -484 c0 -616 -11 -872 -20 -476 -8 344 -1 1082
10 1075 6 -4 10 -223 10 -599z m-3099 474 l-9 -45 -1 42 c-1 44 11 91 16 63 2
-8 -1 -35 -6 -60z m1577 -17 c-76 -2 -200 -2 -275 0 -76 1 -14 3 137 3 151 0
213 -2 138 -3z m569 -488 c8 -16 11 -25 6 -20 -15 15 -293 501 -293 511 0 8
253 -424 287 -491z m562 -43 c0 -290 -4 -545 -8 -567 -5 -23 -9 202 -10 533
-1 380 2 571 9 567 6 -4 10 -192 9 -533z m-2827 -1300 c305 -523 282 -483 266
-477 -8 3 -128 203 -267 445 -225 389 -255 438 -267 422 -12 -15 -13 -12 -14
24 0 32 -14 65 -63 150 -57 97 -93 174 -82 174 2 0 34 -54 72 -120 l68 -119 5
632 c3 348 8 634 10 637 3 3 7 -294 10 -660 l5 -665 257 -443z m128 1182 c0
-381 -3 -573 -10 -569 -6 4 -10 191 -10 529 0 464 4 616 16 616 2 0 4 -259 4
-576z m1646 440 c90 -53 164 -98 164 -101 0 -5 -51 24 -228 128 -64 38 -113
69 -109 69 5 0 82 -43 173 -96z m-568 28 c-111 -195 -203 -350 -206 -347 -4 4
228 405 235 405 2 0 -11 -26 -29 -58z m-701 -670 c-1 -130 -2 -23 -2 238 0
261 1 368 2 237 2 -130 2 -344 0 -475z m1930 75 c-1 -111 -2 -17 -2 208 0 226
1 316 2 202 2 -115 2 -299 0 -410z m1027 547 c27 -49 38 -96 13 -59 -14 21
-48 105 -42 105 2 0 15 -21 29 -46z m-1934 32 c0 -6 -276 -156 -287 -156 -6 0
276 159 285 160 1 0 2 -2 2 -4z m-633 -548 c-1 -90 -3 -19 -3 157 0 176 2 249
3 163 2 -86 2 -230 0 -320z m2649 354 c-9 -8 -14 0 -21 33 l-6 30 16 -28 c9
-16 14 -31 11 -35z m-1722 -104 c15 -27 26 -48 23 -48 -6 0 -117 186 -117 197
0 8 30 -40 94 -149z m233 -185 c-1 -65 -3 -14 -3 112 0 127 2 180 3 118 2 -62
2 -165 0 -230z m-449 290 c-27 -2 -69 -2 -95 0 -27 2 -5 3 47 3 52 0 74 -1 48
-3z m-321 -265 c-1 -40 -3 -10 -3 67 0 77 1 110 3 73 2 -37 2 -100 0 -140z
m176 133 c-15 -28 -29 -48 -31 -46 -4 4 48 95 55 95 2 0 -8 -22 -24 -49z m204
-68 c-2 -16 -4 -5 -4 22 0 28 2 40 4 28 2 -13 2 -35 0 -50z m-137 -47 c0 -12
-5 -7 -19 24 -11 24 -11 24 3 6 9 -11 16 -24 16 -30z m330 -100 c-40 -69 -75
-126 -77 -126 -4 0 13 31 110 202 17 31 33 55 35 53 2 -2 -29 -60 -68 -129z
m-666 -79 c54 -93 96 -170 94 -172 -3 -3 -154 251 -192 324 -42 81 7 5 98
-152z m1001 -109 c-87 -150 -163 -277 -168 -283 -13 -13 26 57 188 338 72 124
132 223 134 222 2 -2 -68 -127 -154 -277z m-1342 -79 c103 -179 187 -330 187
-335 0 -5 -72 117 -161 271 -185 323 -236 414 -222 400 5 -5 94 -157 196 -336z
m825 302 c-53 -34 -96 -57 -87 -47 12 13 114 75 123 76 6 0 -11 -13 -36 -29z
m878 -385 c-124 -216 -236 -401 -248 -412 l-22 -19 21 35 c11 19 121 210 244
424 122 214 225 384 227 378 2 -7 -98 -189 -222 -406z m-2012 -139 c142 -247
256 -451 253 -453 -8 -9 -36 37 -283 466 -202 352 -264 467 -264 488 0 10 6
-1 294 -501z m1012 405 c-5 -4 -186 86 -186 93 0 3 43 -16 95 -42 52 -26 93
-49 91 -51z m-1699 -9 c-7 -7 -23 26 -30 62 -5 24 -2 22 14 -13 11 -24 18 -46
16 -49z m3061 -396 c-145 -252 -276 -472 -291 -490 -35 -41 -27 -24 72 147 44
77 77 144 74 149 -3 6 -2 8 3 5 5 -3 97 147 204 334 107 187 196 334 198 326
1 -8 -116 -220 -260 -471z m-3468 356 c52 -92 78 -146 79 -168 1 -5 -33 49
-74 120 -41 72 -75 133 -75 138 0 23 21 -4 70 -90z m579 -228 c45 -77 86 -147
91 -155 5 -8 97 -170 206 -360 108 -190 204 -355 212 -368 13 -20 13 -22 -1
-16 -15 5 -595 1000 -616 1057 -27 71 -15 54 108 -158z m1851 64 c-214 -122
-259 -146 -247 -133 12 12 421 243 432 244 6 0 -78 -50 -185 -111z m-557 -99
c107 -63 194 -117 192 -118 -4 -4 -465 266 -480 281 -12 12 38 -16 288 -163z
m350 163 c-51 -2 -135 -2 -185 0 -51 1 -10 3 92 3 102 0 143 -2 93 -3z m732
-205 c-11 -6 -171 -100 -355 -208 -346 -203 -390 -228 -378 -215 13 13 733
434 743 434 6 0 1 -5 -10 -11z m805 -105 c-9 -15 -10 -12 -6 16 3 18 7 41 8
50 0 9 3 1 5 -16 2 -18 -1 -41 -7 -50z m-2063 -198 c182 -104 329 -192 328
-194 -4 -4 -775 437 -790 452 -14 14 85 -41 462 -258z m2453 85 c0 -73 -4
-120 -10 -120 -6 0 -10 31 -10 74 0 72 9 166 16 166 2 0 4 -54 4 -120z m-1837
43 c-101 -2 -265 -2 -365 0 -101 1 -19 2 182 2 201 0 283 -1 183 -2z m985 -75
c-6 -17 -900 -527 -963 -551 -27 -9 -46 -15 -42 -11 10 10 991 572 1000 573 5
1 7 -5 5 -11z m-2392 -49 c19 -22 19 -22 -3 -8 -13 8 -23 17 -23 21 0 12 6 9
26 -13z m689 -383 c215 -125 379 -226 367 -226 -29 0 -906 509 -958 556 -44
39 -62 49 591 -330z m-1030 134 c10 -11 14 -20 9 -20 -12 1 -44 25 -44 34 0
12 17 6 35 -14z m2100 -10 c-7 -12 -1007 -12 -1045 0 -14 4 217 8 513 9 357 1
536 -2 532 -9z m-1990 -55 l40 -35 -36 20 c-19 11 -46 32 -60 46 -20 22 -21
25 -4 16 11 -6 38 -27 60 -47z m2438 -56 c-19 -32 -64 -78 -48 -49 13 25 56
80 61 80 3 0 -3 -14 -13 -31z m-1225 -639 c-7 -3 230 -7 527 -10 l540 -5 526
301 c290 166 532 299 537 295 6 -4 -215 -137 -492 -296 -343 -196 -502 -293
-499 -302 4 -9 -4 -13 -23 -13 -17 0 -141 -65 -342 -180 -173 -99 -318 -180
-323 -180 -30 0 21 33 288 185 l296 170 -478 3 c-375 2 -480 -1 -486 -10 -7
-10 -11 -10 -21 0 -8 8 -57 12 -168 12 -229 0 -274 14 -66 20 l170 5 -520 298
c-285 163 -537 313 -559 332 -22 19 218 -112 533 -292 315 -181 567 -330 560
-333z m1507 371 c-15 -29 -33 -47 -40 -39 -4 4 44 68 51 68 2 0 -2 -13 -11
-29z m-585 -1 c-19 -12 -1197 -13 -1255 -1 -23 5 241 9 615 10 426 0 650 -3
640 -9z m-1363 -6 c-3 -3 -12 -4 -19 -1 -8 3 -5 6 6 6 11 1 17 -2 13 -5z
m1881 -109 c-10 -23 -28 -34 -28 -18 0 7 31 43 36 43 2 0 -2 -11 -8 -25z
m-2464 -157 c-4 -6 -13 0 -20 13 -20 36 -16 47 6 20 11 -12 17 -28 14 -33z
m1601 23 c-7 -12 -94 -45 -101 -39 -3 4 39 23 104 47 2 0 1 -3 -3 -8z m-140
-81 c-3 -5 -13 -10 -21 -10 -8 0 -14 5 -14 10 0 6 9 10 21 10 11 0 17 -4 14
-10z m-1030 -60 c15 -7 10 -9 -23 -9 -26 -1 -41 3 -37 9 7 12 32 12 60 0z
m150 0 c26 -7 24 -8 -20 -9 -27 0 -57 4 -65 9 -18 12 39 12 85 0z"/>
<path d="M3569 5309 c-41 -41 -3 -97 45 -66 28 19 34 55 14 75 -17 17 -35 15
-59 -9z"/>
<path d="M2460 5351 c0 -11 -3 -26 -6 -35 -9 -24 41 -21 67 5 26 26 11 49 -32
49 -22 0 -29 -5 -29 -19z"/>
<path d="M4876 5348 c-10 -40 -7 -48 23 -48 57 0 71 63 15 68 -26 3 -33 -1
-38 -20z"/>
<path d="M1817 5312 c-36 -39 -10 -90 38 -78 14 4 30 17 36 30 24 51 -36 90
-74 48z"/>
<path d="M2132 5318 c-21 -21 -13 -28 34 -28 38 0 45 3 42 18 -4 21 -57 29
-76 10z"/>
<path d="M3242 5268 c-17 -17 -15 -38 3 -38 25 0 65 23 65 37 0 16 -51 18 -68
1z"/>
<path d="M4050 5310 c-33 -33 -20 -80 22 -80 43 0 79 80 42 94 -27 10 -43 7
-64 -14z"/>
<path d="M5010 5310 c-33 -33 -20 -80 22 -80 43 0 79 80 42 94 -27 10 -43 7
-64 -14z"/>
<path d="M5482 5268 c-17 -17 -15 -38 3 -38 25 0 65 23 65 37 0 16 -51 18 -68
1z"/>
</g>
</svg>
