<?xml version="1.0" standalone="no"?>
<!DOCTYPE svg PUBLIC "-//W3C//DTD SVG 20010904//EN"
 "http://www.w3.org/TR/2001/REC-SVG-20010904/DTD/svg10.dtd">
<svg version="1.0" xmlns="http://www.w3.org/2000/svg"
 width="938.000000pt" height="938.000000pt" viewBox="0 0 938.000000 938.000000"
 preserveAspectRatio="xMidYMid meet">

<g transform="translate(0.000000,938.000000) scale(0.100000,-0.100000)"
fill="#000000" stroke="none">
<path d="M0 4690 l0 -4690 4690 0 4690 0 0 4690 0 4690 -4690 0 -4690 0 0
-4690z m4378 1965 c3 -364 -4 -608 -19 -599 -5 3 -9 0 -9 -5 0 -6 -7 -11 -15
-11 -8 0 -15 -4 -15 -10 0 -5 -9 -10 -20 -10 -11 0 -20 -6 -20 -14 0 -7 -13
-19 -30 -26 -16 -7 -30 -18 -30 -24 0 -6 -14 -20 -30 -31 -16 -11 -30 -25 -30
-32 0 -6 -4 -13 -8 -15 -9 -3 -112 -135 -112 -143 0 -3 -8 -14 -17 -25 -10
-11 -29 -33 -43 -50 -14 -16 -30 -36 -36 -43 -6 -7 -14 -23 -18 -34 -4 -12
-20 -36 -37 -54 -16 -17 -29 -34 -29 -38 0 -3 -11 -19 -25 -36 -14 -16 -32
-45 -40 -62 -8 -18 -19 -33 -26 -33 -6 0 -9 -6 -6 -14 3 -8 -4 -25 -17 -38
-12 -13 -26 -31 -29 -41 -4 -10 -12 -15 -18 -12 -6 4 -13 -2 -16 -14 -3 -11
-9 -18 -14 -15 -5 3 -9 -11 -9 -30 0 -19 -4 -38 -10 -41 -5 -3 -10 -1 -10 5 0
6 -4 9 -9 6 -5 -3 -11 0 -14 8 -8 19 -10 522 -8 1414 l1 412 383 -2 382 -3 3
-340z m2441 329 c382 -55 703 -197 906 -399 131 -130 215 -275 268 -463 21
-75 22 -95 24 -707 l2 -630 -43 120 c-212 590 -515 988 -921 1210 -156 86
-194 95 -378 95 -133 0 -178 -4 -243 -21 -216 -56 -487 -233 -734 -478 -59
-58 -301 -329 -539 -601 -238 -272 -450 -511 -470 -530 -21 -19 -122 -132
-226 -250 -192 -219 -298 -323 -440 -434 -478 -373 -932 -511 -1374 -417 -562
119 -949 459 -1139 1001 -50 143 -59 177 -83 314 -17 98 -19 163 -19 556 1
495 -3 475 65 300 51 -129 179 -394 247 -510 69 -117 193 -295 261 -375 221
-261 482 -446 732 -521 107 -31 314 -44 406 -25 80 17 222 90 324 168 171 129
474 452 788 843 125 154 435 512 820 945 258 290 544 532 752 635 152 75 401
142 651 174 148 19 237 19 363 0z m-4703 -509 c-7 -459 -13 -575 -30 -592 -4
-4 -25 -8 -47 -8 -24 0 -39 -4 -39 -12 0 -15 -7 -19 -50 -27 -25 -5 -31 -4
-20 3 24 16 6 22 -31 9 -45 -16 -46 -17 -29 -29 11 -7 7 -8 -13 -3 -15 3 -33
2 -40 -4 -33 -26 -141 -17 -179 15 -9 8 -24 16 -33 17 -9 1 -20 8 -25 15 -4 8
-13 10 -20 6 -9 -5 -11 -4 -6 3 4 7 2 12 -3 12 -19 0 -25 3 -46 22 -11 10 -29
21 -41 24 -46 12 -48 29 -52 556 l-4 498 344 2 c217 2 348 -1 357 -7 12 -8 13
-84 7 -500z m4812 -1623 l2 -292 -722 0 c-398 0 -729 4 -736 9 -10 6 -2 22 33
64 25 31 55 63 67 72 13 8 19 15 15 15 -9 0 4 16 66 83 26 27 47 56 47 62 0 7
9 15 21 18 12 3 18 10 15 15 -3 6 1 12 9 15 7 3 22 21 31 39 9 18 22 36 30 41
7 4 31 35 53 68 23 34 41 57 41 53 0 -5 5 -2 10 6 8 13 69 16 417 20 224 3
451 5 503 5 l95 -1 3 -292z m-1308 214 c0 -2 -8 -10 -17 -17 -16 -13 -17 -12
-4 4 13 16 21 21 21 13z m1679 -1382 c1 -198 -1 -233 -14 -238 -12 -4 -15 5
-17 47 -3 115 3 467 10 537 l7 75 6 -95 c4 -52 7 -199 8 -326z m-5927 -420 c3
-101 6 -117 22 -130 28 -20 63 -17 86 6 18 18 20 33 20 131 0 84 3 110 13 106
9 -3 12 -36 12 -120 0 -107 -2 -118 -22 -138 -30 -31 -105 -31 -135 -1 -18 18
-22 36 -26 126 -2 58 -2 112 1 120 16 41 26 6 29 -100z m344 9 l59 -106 5 103
c3 70 9 105 18 108 9 3 12 -29 12 -138 0 -177 -8 -179 -94 -26 l-61 108 -3
-111 c-4 -163 -22 -140 -22 29 0 108 3 140 13 140 7 0 40 -48 73 -107z m232
-36 c2 -117 0 -137 -13 -137 -13 0 -15 21 -15 141 0 108 3 140 13 137 9 -3 13
-43 15 -141z m146 25 c17 -61 33 -112 37 -112 3 0 16 37 28 83 35 129 42 147
57 147 16 0 17 5 -30 -160 -28 -96 -37 -116 -54 -118 -22 -3 -22 -2 -78 193
-9 33 -19 66 -22 74 -3 8 1 12 13 9 15 -2 26 -29 49 -116z m376 103 c0 -12
-13 -15 -60 -15 l-60 0 0 -50 0 -50 55 0 c30 0 55 -4 55 -10 0 -5 -25 -10 -56
-10 l-55 0 3 -52 3 -53 45 -2 c25 -1 51 -2 58 -2 6 -1 12 -5 12 -11 0 -6 -32
-10 -75 -10 l-75 0 0 140 0 140 75 0 c60 0 75 -3 75 -15z m236 -7 c9 -8 18
-34 21 -56 5 -34 1 -44 -19 -65 l-25 -25 23 -57 c20 -49 21 -56 6 -53 -9 2
-25 26 -37 56 -18 48 -22 52 -52 52 l-33 0 0 -55 c0 -42 -3 -55 -15 -55 -13 0
-15 21 -15 133 0 74 3 137 8 141 12 13 122 1 138 -16z m264 2 c22 -22 28 -84
8 -78 -7 3 -15 13 -17 24 -5 31 -22 44 -56 44 -38 0 -58 -19 -53 -51 3 -25 15
-33 78 -51 84 -25 94 -104 18 -141 -32 -16 -43 -17 -73 -7 -38 13 -43 17 -55
60 -12 41 17 41 31 0 17 -48 86 -53 110 -9 19 36 -3 67 -51 75 -58 9 -90 38
-90 79 0 66 102 103 150 55z m150 -120 c0 -118 -2 -140 -15 -140 -13 0 -15 22
-15 140 0 118 2 140 15 140 13 0 15 -22 15 -140z m255 125 c0 -5 -15 -11 -32
-13 l-33 -3 0 -125 c0 -104 -2 -124 -15 -124 -13 0 -15 21 -15 125 l0 125 -35
0 c-25 0 -35 4 -35 15 0 13 14 15 83 13 46 -2 82 -7 82 -13z m127 -62 c17 -40
34 -71 38 -68 3 2 19 36 35 74 15 39 34 71 42 71 19 0 17 -7 -27 -109 -24 -56
-40 -107 -40 -132 0 -28 -4 -39 -15 -39 -11 0 -15 12 -15 44 0 26 -12 73 -31
117 -52 126 -51 121 -33 117 9 -2 29 -34 46 -75z m487 51 c25 -31 28 -74 6
-74 -9 0 -15 9 -15 23 0 31 -18 47 -55 47 -36 0 -55 -15 -55 -46 0 -28 16 -41
63 -49 56 -11 79 -34 79 -78 0 -45 -14 -64 -57 -76 -62 -17 -106 5 -120 62 -6
20 -4 27 8 27 8 0 18 -11 21 -25 13 -50 98 -59 115 -13 16 45 -4 65 -81 82
-38 8 -58 32 -58 69 0 52 29 76 92 77 28 0 41 -6 57 -26z m271 11 c0 -10 -11
-15 -35 -15 l-35 0 0 -125 c0 -104 -2 -125 -15 -125 -13 0 -15 21 -15 125 l0
125 -35 0 c-24 0 -35 5 -35 15 0 12 16 15 85 15 69 0 85 -3 85 -15z m110 -99
c0 -127 8 -146 60 -146 52 0 60 19 60 146 0 95 3 114 15 114 12 0 15 -20 15
-116 0 -63 -4 -124 -10 -134 -27 -50 -141 -45 -161 7 -5 13 -9 74 -9 134 0 90
3 109 15 109 12 0 15 -19 15 -114z m379 99 c31 -16 49 -52 52 -105 5 -76 -1
-101 -30 -131 -26 -26 -36 -29 -90 -29 l-61 0 0 140 0 140 50 0 c28 0 64 -7
79 -15z m311 0 c0 -12 -14 -15 -65 -15 l-65 0 0 -50 0 -50 55 0 c30 0 55 -4
55 -10 0 -5 -25 -10 -56 -10 l-55 0 3 -52 3 -53 63 -3 c90 -4 76 -22 -18 -22
l-80 0 0 140 0 140 80 0 c64 0 80 -3 80 -15z m182 -97 l63 -113 3 113 c4 164
22 141 22 -28 0 -114 -3 -140 -14 -140 -8 0 -41 47 -73 105 l-58 105 -3 -105
c-2 -84 -6 -105 -17 -105 -13 0 -15 24 -15 140 0 114 3 140 14 140 8 0 43 -51
78 -112z m343 97 c0 -5 -15 -11 -32 -13 l-33 -3 0 -125 c0 -104 -2 -124 -15
-124 -13 0 -15 21 -15 125 l0 125 -35 0 c-25 0 -35 4 -35 15 0 13 14 15 83 13
46 -2 82 -7 82 -13z m230 -10 c26 -25 34 -75 12 -75 -7 0 -17 15 -22 33 -9 29
-14 32 -52 35 -34 3 -44 -1 -53 -18 -6 -11 -8 -29 -5 -40 6 -18 52 -40 85 -40
46 0 76 -72 50 -120 -12 -23 -67 -40 -104 -33 -30 6 -66 46 -66 74 0 28 27 23
34 -6 13 -53 100 -59 112 -8 9 33 -5 56 -42 67 -90 27 -111 49 -98 102 14 56
105 74 149 29z m149 7 c-1 -7 -2 -28 -2 -47 -3 -55 -22 -41 -22 16 0 36 4 49
13 47 6 -3 12 -10 11 -16z m368 -117 c43 -150 42 -145 23 -145 -8 0 -18 14
-23 33 -8 30 -11 32 -60 35 l-51 3 -7 -35 c-4 -25 -12 -36 -23 -36 -15 0 -13
17 23 140 35 125 42 141 60 138 17 -2 27 -25 58 -133z m158 10 c0 -139 -1
-138 79 -132 20 1 36 -3 38 -10 4 -10 -15 -13 -71 -13 l-76 0 0 140 c0 118 2
140 15 140 13 0 15 -21 15 -125z m228 -9 l3 -127 51 3 c34 2 53 -1 55 -9 4
-10 -14 -13 -66 -13 l-71 0 0 141 c0 108 3 140 13 137 8 -3 13 -41 15 -132z
m222 -6 c0 -118 -2 -140 -15 -140 -13 0 -15 21 -15 133 0 74 3 137 7 140 19
19 23 -5 23 -133z m230 68 c12 -40 30 -102 40 -138 11 -35 17 -66 15 -68 -11
-11 -33 10 -38 37 -6 30 -9 31 -56 31 -47 0 -50 -1 -56 -31 -6 -26 -29 -49
-39 -38 -2 2 10 49 25 104 16 55 34 117 40 138 7 26 15 37 29 37 15 0 24 -15
40 -72z m236 -35 l59 -106 5 103 c3 70 9 105 18 108 9 3 12 -29 12 -138 0
-177 -8 -179 -94 -26 l-61 108 -3 -111 c-4 -163 -22 -140 -22 29 0 108 3 140
13 140 7 0 40 -48 73 -107z m343 90 c28 -23 41 -93 17 -93 -10 0 -16 8 -16 21
0 39 -19 59 -55 59 -50 0 -65 -28 -65 -117 0 -60 4 -77 21 -94 30 -30 70 -22
89 18 8 18 21 33 28 33 20 0 14 -37 -11 -66 -19 -21 -32 -27 -66 -27 -69 0
-85 24 -89 131 -4 84 -2 90 23 120 21 26 34 32 65 32 21 0 47 -8 59 -17z m281
2 c0 -12 -14 -15 -66 -15 l-65 0 3 -47 3 -48 53 -3 c69 -4 67 -22 -3 -22 l-55
0 0 -49 0 -50 43 -5 c23 -4 51 -5 61 -4 10 2 21 -3 23 -9 4 -10 -16 -13 -76
-13 l-81 0 0 133 c0 74 3 137 7 140 3 4 39 7 80 7 58 0 73 -3 73 -15z m-3044
-1039 c28 -13 54 -28 58 -34 3 -6 -14 -22 -38 -36 -24 -14 -56 -40 -73 -59
l-29 -33 -74 27 c-41 16 -84 28 -95 29 -11 0 -27 5 -35 10 -12 8 -9 15 20 45
75 79 168 96 266 51z m-311 6 l40 -7 -44 -48 c-31 -33 -51 -47 -70 -47 -108 0
-205 -78 -232 -186 -10 -40 -12 -42 -60 -48 -27 -4 -77 -15 -110 -26 l-60 -18
7 31 c21 101 80 197 155 257 95 75 251 113 374 92z m508 -119 c24 -22 47 -73
47 -106 0 -17 10 -27 39 -40 112 -50 158 -174 116 -314 -19 -64 -53 -94 -175
-157 -108 -56 -173 -112 -198 -170 l-18 -40 -21 35 c-12 19 -33 45 -47 59
l-26 24 99 100 c119 122 154 183 155 271 0 33 -5 77 -12 97 -20 55 -84 115
-148 135 l-54 17 37 39 c71 74 156 94 206 50z m-433 -28 c104 -22 111 -28 53
-50 -177 -65 -283 -218 -283 -407 0 -71 -14 -75 -63 -18 -43 50 -61 114 -61
205 2 226 123 319 354 270z m155 -127 c31 -51 43 -89 44 -138 1 -48 -15 -120
-27 -119 -4 0 -20 28 -37 62 -38 79 -86 114 -170 125 l-60 8 55 28 c54 28 144
64 165 65 6 1 20 -14 30 -31z m143 -37 c30 -16 62 -90 62 -146 0 -55 -29 -121
-71 -161 l-28 -27 -10 26 c-5 14 -17 29 -26 34 -14 8 -14 14 4 54 24 52 26
127 6 184 -21 59 -20 65 14 55 15 -4 37 -13 49 -19z m-692 -124 c-14 -110 31
-211 116 -261 24 -14 116 -53 203 -86 158 -60 248 -109 273 -150 12 -20 12
-21 -17 -5 -69 35 -135 14 -296 -95 -118 -79 -212 -120 -279 -120 -48 0 -60 4
-90 31 -24 20 -41 49 -53 85 -14 44 -23 58 -50 70 -94 45 -135 147 -115 286
25 171 87 246 237 284 80 20 78 21 71 -39z m340 37 c18 -5 21 -11 17 -47 -7
-57 20 -90 95 -117 98 -35 130 -52 157 -80 l26 -27 -53 -23 c-151 -65 -229
-75 -299 -40 -82 42 -101 132 -54 255 13 37 27 70 30 76 7 10 49 12 81 3z
m146 -65 c35 -26 38 -59 4 -59 -28 0 -86 51 -86 75 0 22 40 13 82 -16z m492
-311 c3 -13 6 -57 6 -99 0 -61 -5 -85 -26 -128 -30 -59 -97 -110 -174 -132
-27 -8 -65 -31 -97 -59 -64 -59 -113 -82 -181 -88 -77 -7 -130 17 -197 89 -30
33 -55 66 -55 74 0 18 85 79 155 111 49 23 66 25 123 21 37 -3 78 -8 92 -12
22 -5 29 0 54 41 34 54 133 138 207 177 64 33 85 34 93 5z"/>
<path d="M2590 3295 l0 -55 45 0 c34 0 47 5 55 19 27 51 0 91 -61 91 l-39 0 0
-55z"/>
<path d="M4650 3241 c0 -119 2 -122 58 -113 39 5 60 33 63 82 7 104 -13 140
-81 140 l-40 0 0 -109z"/>
<path d="M6253 3271 l-21 -71 39 0 c22 0 39 3 39 8 -1 4 -9 36 -18 71 l-18 63
-21 -71z"/>
<path d="M7128 3324 c-3 -5 -11 -28 -18 -52 -6 -24 -14 -50 -17 -58 -4 -11 4
-14 36 -14 39 0 41 1 35 26 -17 69 -31 106 -36 98z"/>
</g>
</svg>
